# xmcd
#
# Track frame offsets:
#	150
#	10867
#	21317
#	32534
#	46135
#	60241
#	71284
#	84027
#	93646
#	107937
#	117669
#	129634
#	142187
#	155612
#	165361
#	178786
#	189583
#	202089
#	213987
#	222447
#	232488
#	245421
#	256676
#	267231
#	278426
#	287344
#
# Disc length: 4075
#
# Revision: 1
# Processed by: cddbd v1.5.1PL0 Copyright (c) Steve Scherf et al.
# Submitted via: ExactAudioCopy v0.95a3
# Normalized: r0:TDELIM( - )
#
DISCID=770fe91a
DTITLE=Various Artist - As Good as it gets #2
DYEAR=2000
DGENRE=R&B
TTITLE0=Joe Turner - Jumpin' tonight
TTITLE1=Ray Brown - Saturday Night
TTITLE2=Jimmie Liggins - Boogie Woogie King
TTITLE3=Charles Brown - Alley Batting
TTITLE4=Cootie Williams with Eddie Cleanhead Vinson - Juice Head Baby
TTITLE5=King Porter Orchestra - Chittlin' Ball
TTITLE6=Amos Milburn - Chicken Shack Boogie
TTITLE7=Walter Brown - Gonna Play with your woman
TTITLE8=King Cole Trio - Easy Listening Blues
TTITLE9=Louis Prima, featuring Sam Butera - 5 months, 2 weeks, 2 days
TTITLE10=Charles Brown - I wanna fool around with you
TTITLE11=Jesse Price - Jump it with a shuffle
TTITLE12=Floyd Dixon - Call Operator
TTITLE13=Snooks Eaglin - Yours Truly
TTITLE14=Amos Milburn - Down the Road a Piece
TTITLE15=Jimmy Liggins - I ain't funk
TTITLE16=Charles Brown - Evening Shadows
TTITLE17=Walter Brown - Play the Blues
TTITLE18=Ray Brown - We're Going Rockin' tonight
TTITLE19=Ike Carpenter Orchestra - Pachuka Hop
TTITLE20=Jay McShann - Pic's Boogie
TTITLE21=Jimmy Liggins - No more alcohol
TTITLE22=Tommy Douglas - Lights Out
TTITLE23=Amos Milburn - My Baby's Boogying
TTITLE24=Pee Wee Crayton - Blues Before Dawn
TTITLE25=James Cotton - Kiddy Boy
EXTD=
EXTT0=Joe Turner - Jumpin' tonight
EXTT1=
EXTT2=
EXTT3=
EXTT4=
EXTT5=
EXTT6=
EXTT7=
EXTT8=
EXTT9=
EXTT10=
EXTT11=
EXTT12=
EXTT13=
EXTT14=
EXTT15=
EXTT16=
EXTT17=
EXTT18=
EXTT19=
EXTT20=
EXTT21=
EXTT22=
EXTT23=
EXTT24=
EXTT25=
PLAYORDER=
